<?xml version="1.0" standalone="no"?>
<!DOCTYPE svg PUBLIC "-//W3C//DTD SVG 20010904//EN"
 "http://www.w3.org/TR/2001/REC-SVG-20010904/DTD/svg10.dtd">
<svg version="1.0" xmlns="http://www.w3.org/2000/svg"
 width="525.000000pt" height="525.000000pt" viewBox="0 0 525.000000 525.000000"
 preserveAspectRatio="xMidYMid meet">
<metadata>
Created by potrace 1.11, written by Peter Selinger 2001-2013
</metadata>
<g transform="translate(0.000000,525.000000) scale(0.100000,-0.100000)"
fill="#000000" stroke="none">
<path d="M3124 4416 c-40 -18 -45 -30 -153 -361 -77 -234 -206 -628 -576
-1750 -23 -71 -133 -405 -244 -741 -110 -336 -201 -623 -201 -637 0 -40 49
-90 91 -92 41 -3 84 18 100 47 6 12 47 130 91 262 43 133 127 390 187 571 203
615 418 1268 611 1855 106 322 203 617 216 657 37 110 29 159 -31 188 -40 18
-51 18 -91 1z"/>
<path d="M1790 3843 c-8 -3 -50 -30 -92 -60 -43 -29 -113 -77 -155 -106 -43
-30 -202 -139 -353 -242 -151 -104 -302 -207 -335 -230 -33 -23 -190 -131
-350 -240 -397 -271 -393 -268 -401 -312 -11 -61 12 -88 164 -191 75 -51 184
-126 241 -165 97 -66 355 -243 1020 -699 142 -98 269 -179 282 -181 81 -13
146 75 107 146 -16 31 -19 33 -158 128 -69 47 -160 110 -203 140 -43 30 -89
61 -102 69 -13 8 -74 50 -137 93 -250 172 -345 237 -618 424 -157 108 -291
201 -297 207 -10 9 88 80 439 321 249 171 497 341 553 379 55 38 163 112 240
164 77 53 166 114 198 136 74 50 97 80 97 122 0 64 -83 121 -140 97z"/>
<path d="M3352 3835 c-44 -19 -65 -69 -51 -118 10 -39 -20 -16 519 -387 197
-136 277 -191 475 -325 88 -60 162 -112 165 -115 3 -3 46 -32 95 -66 206 -138
275 -186 275 -192 -1 -4 -156 -113 -345 -242 -190 -129 -420 -287 -513 -350
-150 -104 -301 -207 -537 -368 -135 -92 -156 -122 -134 -189 12 -36 42 -59 87
-66 37 -6 19 -17 437 269 176 121 331 227 345 236 14 10 68 47 120 83 52 37
145 100 205 141 61 41 175 120 255 175 80 55 189 130 244 167 102 69 123 90
129 132 9 58 -4 72 -177 190 -123 84 -256 175 -611 419 -132 90 -283 194 -335
229 -223 153 -415 285 -500 343 -65 46 -103 54 -148 34z"/>
</g>
</svg>
