<svg data-v-fde0c5aa="" xmlns="http://www.w3.org/2000/svg" class="iconLeft" viewBox="39.98 133.03 220.03 33.93" width="100"><!----><defs data-v-fde0c5aa=""><!----></defs><rect data-v-fde0c5aa="" fill="transparent" x="0" y="0" width="300px" height="100px" class="logo-background-square"></rect><defs data-v-fde0c5aa=""><!----></defs><g data-v-fde0c5aa="" id="6f2fa3bd-325d-4010-a72d-c19a8b1e09ce" fill="#000000" transform="matrix(2.11505126953125,0,0,2.11505126953125,99.93358597727146,138.70595705744452)"><path d="M2.55 0.73L3.53 0.73L3.53 8.01L3.53 8.01Q3.53 8.72 3.35 9.23L3.35 9.23L3.35 9.23Q3.16 9.73 2.85 10.05L2.85 10.05L2.85 10.05Q2.53 10.37 2.12 10.53L2.12 10.53L2.12 10.53Q1.71 10.68 1.23 10.68L1.23 10.68L1.23 10.68Q0.76 10.68 0.48 10.61L0.48 10.61L0.48 10.61Q0.20 10.54 0.20 10.53L0.20 10.53L0.20 9.67L0.20 9.67Q0.34 9.72 0.49 9.76L0.49 9.76L0.49 9.76Q0.77 9.83 1.06 9.83L1.06 9.83L1.06 9.83Q1.48 9.83 1.76 9.69L1.76 9.69L1.76 9.69Q2.04 9.55 2.23 9.30L2.23 9.30L2.23 9.30Q2.41 9.04 2.48 8.71L2.48 8.71L2.48 8.71Q2.56 8.39 2.56 8.01L2.56 8.01L2.55 0.73ZM8.57 3.19L8.57 3.19L8.57 3.19Q9.06 3.19 9.65 3.35L9.65 3.35L9.65 3.35Q10.23 3.51 10.74 3.94L10.74 3.94L10.74 3.94Q11.24 4.37 11.58 5.10L11.58 5.10L11.58 5.10Q11.91 5.82 11.91 6.96L11.91 6.96L11.91 6.96Q11.91 8.09 11.58 8.81L11.58 8.81L11.58 8.81Q11.24 9.53 10.74 9.95L10.74 9.95L10.74 9.95Q10.23 10.36 9.65 10.52L9.65 10.52L9.65 10.52Q9.06 10.68 8.57 10.68L8.57 10.68L8.57 10.68Q8.08 10.68 7.50 10.52L7.50 10.52L7.50 10.52Q6.92 10.36 6.42 9.95L6.42 9.95L6.42 9.95Q5.92 9.53 5.59 8.81L5.59 8.81L5.59 8.81Q5.25 8.09 5.25 6.96L5.25 6.96L5.25 6.96Q5.25 5.82 5.59 5.10L5.59 5.10L5.59 5.10Q5.92 4.37 6.42 3.94L6.42 3.94L6.42 3.94Q6.92 3.51 7.50 3.35L7.50 3.35L7.50 3.35Q8.08 3.19 8.57 3.19ZM8.57 9.93L8.57 9.93L8.57 9.93Q9.76 9.91 10.35 9.11L10.35 9.11L10.35 9.11Q10.93 8.32 10.93 6.96L10.93 6.96L10.93 6.96Q10.93 6.29 10.79 5.73L10.79 5.73L10.79 5.73Q10.64 5.18 10.34 4.78L10.34 4.78L10.34 4.78Q10.04 4.38 9.60 4.17L9.60 4.17L9.60 4.17Q9.16 3.95 8.57 3.95L8.57 3.95L8.57 3.95Q7.98 3.95 7.54 4.17L7.54 4.17L7.54 4.17Q7.10 4.38 6.80 4.78L6.80 4.78L6.80 4.78Q6.51 5.18 6.36 5.73L6.36 5.73L6.36 5.73Q6.22 6.29 6.22 6.96L6.22 6.96L6.22 6.96Q6.22 7.63 6.36 8.18L6.36 8.18L6.36 8.18Q6.51 8.74 6.80 9.12L6.80 9.12L6.80 9.12Q7.10 9.51 7.54 9.72L7.54 9.72L7.54 9.72Q7.98 9.93 8.57 9.93ZM18.96 7.18L14.03 7.18L14.03 7.18Q14.01 7.95 14.27 8.55L14.27 8.55L14.27 8.55Q14.36 8.81 14.54 9.06L14.54 9.06L14.54 9.06Q14.71 9.31 14.97 9.50L14.97 9.50L14.97 9.50Q15.22 9.69 15.57 9.81L15.57 9.81L15.57 9.81Q15.93 9.93 16.41 9.93L16.41 9.93L16.41 9.93Q16.81 9.93 17.18 9.82L17.18 9.82L17.18 9.82Q17.54 9.72 17.82 9.59L17.82 9.59L17.82 9.59Q18.16 9.44 18.45 9.24L18.45 9.24L18.47 10.14L18.47 10.14Q18.47 10.14 18.31 10.23L18.31 10.23L18.31 10.23Q18.16 10.32 17.90 10.42L17.90 10.42L17.90 10.42Q17.64 10.51 17.28 10.60L17.28 10.60L17.28 10.60Q16.93 10.68 16.53 10.68L16.53 10.68L16.53 10.68Q15.40 10.68 14.71 10.32L14.71 10.32L14.71 10.32Q14.03 9.97 13.65 9.41L13.65 9.41L13.65 9.41Q13.27 8.85 13.15 8.15L13.15 8.15L13.15 8.15Q13.03 7.46 13.03 6.78L13.03 6.78L13.03 6.78Q13.03 6.13 13.23 5.49L13.23 5.49L13.23 5.49Q13.43 4.84 13.81 4.33L13.81 4.33L13.81 4.33Q14.20 3.82 14.77 3.51L14.77 3.51L14.77 3.51Q15.34 3.19 16.11 3.19L16.11 3.19L16.11 3.19Q16.97 3.19 17.52 3.54L17.52 3.54L17.52 3.54Q18.07 3.89 18.39 4.42L18.39 4.42L18.39 4.42Q18.70 4.96 18.83 5.59L18.83 5.59L18.83 5.59Q18.96 6.22 18.96 6.78L18.96 6.78L18.96 7.18ZM14.01 6.43L17.98 6.43L17.98 6.43Q17.98 5.96 17.87 5.52L17.87 5.52L17.87 5.52Q17.77 5.07 17.54 4.72L17.54 4.72L17.54 4.72Q17.32 4.37 16.96 4.16L16.96 4.16L16.96 4.16Q16.60 3.95 16.11 3.95L16.11 3.95L16.11 3.95Q15.62 3.95 15.24 4.17L15.24 4.17L15.24 4.17Q14.85 4.40 14.58 4.75L14.58 4.75L14.58 4.75Q14.31 5.10 14.16 5.54L14.16 5.54L14.16 5.54Q14.01 5.99 14.01 6.43L14.01 6.43ZM24.61 0.71L26.10 0.71L29.71 9.27L33.21 0.71L34.69 0.71L33.21 0.71L34.69 0.71L34.69 10.50L33.74 10.50L33.74 1.69L33.74 1.69Q33.47 2.35 33.18 3.08L33.18 3.08L33.18 3.08Q32.93 3.71 32.61 4.49L32.61 4.49L32.61 4.49Q32.28 5.28 31.95 6.10L31.95 6.10L30.16 10.50L29.34 10.50L25.58 1.69L25.58 10.50L24.61 10.50L24.61 0.71ZM40.03 10.68L40.03 10.68L40.03 10.68Q39.14 10.68 38.48 10.39L38.48 10.39L38.48 10.39Q37.81 10.11 37.37 9.61L37.37 9.61L37.37 9.61Q36.92 9.11 36.69 8.44L36.69 8.44L36.69 8.44Q36.46 7.76 36.46 6.96L36.46 6.96L36.46 6.96Q36.46 6.16 36.69 5.47L36.69 5.47L36.69 5.47Q36.93 4.79 37.39 4.28L37.39 4.28L37.39 4.28Q37.84 3.77 38.51 3.48L38.51 3.48L38.51 3.48Q39.17 3.19 40.03 3.19L40.03 3.19L40.03 3.19Q40.45 3.19 40.80 3.24L40.80 3.24L40.80 3.24Q41.15 3.29 41.40 3.35L41.40 3.35L41.40 3.35Q41.65 3.40 41.79 3.46L41.79 3.46L41.79 3.46Q41.93 3.51 41.93 3.51L41.93 3.51L41.64 4.20L41.64 4.20Q40.89 3.93 40.15 3.96L40.15 3.96L40.15 3.96Q39.40 3.99 38.79 4.33L38.79 4.33L38.79 4.33Q38.18 4.66 37.80 5.31L37.80 5.31L37.80 5.31Q37.42 5.96 37.42 6.96L37.42 6.96L37.42 6.96Q37.42 7.91 37.81 8.55L37.81 8.55L37.81 8.55Q38.21 9.20 38.81 9.53L38.81 9.53L38.81 9.53Q39.42 9.87 40.17 9.90L40.17 9.90L40.17 9.90Q40.92 9.93 41.64 9.65L41.64 9.65L41.94 10.33L41.94 10.33Q41.93 10.33 41.79 10.39L41.79 10.39L41.79 10.39Q41.65 10.44 41.40 10.51L41.40 10.51L41.40 10.51Q41.15 10.57 40.80 10.63L40.80 10.63L40.80 10.63Q40.45 10.68 40.03 10.68ZM47.98 5.22L51.35 5.22L51.35 10.08L51.35 10.08Q51.35 10.08 51.15 10.17L51.15 10.17L51.15 10.17Q50.95 10.26 50.53 10.38L50.53 10.38L50.53 10.38Q50.11 10.50 49.48 10.59L49.48 10.59L49.48 10.59Q48.85 10.68 48.01 10.68L48.01 10.68L48.01 10.68Q47.53 10.68 46.99 10.59L46.99 10.59L46.99 10.59Q46.45 10.50 45.93 10.28L45.93 10.28L45.93 10.28Q45.40 10.07 44.92 9.70L44.92 9.70L44.92 9.70Q44.44 9.32 44.07 8.76L44.07 8.76L44.07 8.76Q43.69 8.19 43.48 7.41L43.48 7.41L43.48 7.41Q43.26 6.64 43.26 5.60L43.26 5.60L43.26 5.60Q43.26 4.07 43.74 3.09L43.74 3.09L43.74 3.09Q44.21 2.10 44.92 1.54L44.92 1.54L44.92 1.54Q45.63 0.98 46.46 0.76L46.46 0.76L46.46 0.76Q47.29 0.55 48.01 0.55L48.01 0.55L48.01 0.55Q48.45 0.55 48.94 0.60L48.94 0.60L48.94 0.60Q49.43 0.66 49.89 0.73L49.89 0.73L49.89 0.73Q50.34 0.81 50.72 0.91L50.72 0.91L50.72 0.91Q51.10 1.01 51.31 1.09L51.31 1.09L51.31 1.97L51.31 1.97Q51.17 1.92 50.83 1.82L50.83 1.82L50.83 1.82Q50.48 1.72 50.02 1.62L50.02 1.62L50.02 1.62Q49.56 1.53 49.04 1.46L49.04 1.46L49.04 1.46Q48.51 1.40 48.01 1.40L48.01 1.40L48.01 1.40Q47.24 1.40 46.56 1.62L46.56 1.62L46.56 1.62Q45.88 1.83 45.37 2.33L45.37 2.33L45.37 2.33Q44.86 2.83 44.56 3.63L44.56 3.63L44.56 3.63Q44.25 4.44 44.25 5.60L44.25 5.60L44.25 5.61L44.25 5.61Q44.25 6.79 44.56 7.59L44.56 7.59L44.56 7.59Q44.86 8.40 45.37 8.90L45.37 8.90L45.37 8.90Q45.88 9.39 46.56 9.61L46.56 9.61L46.56 9.61Q47.24 9.83 48.01 9.83L48.01 9.83L48.01 9.83Q48.01 9.83 48.28 9.83L48.28 9.83L48.28 9.83Q48.55 9.83 48.93 9.80L48.93 9.80L48.93 9.80Q49.31 9.77 49.71 9.70L49.71 9.70L49.71 9.70Q50.12 9.63 50.39 9.48L50.39 9.48L50.39 6.05L47.98 6.05L47.98 5.22ZM56.95 3.29L56.95 4.20L56.95 4.20Q56.81 4.19 56.69 4.16L56.69 4.16L56.69 4.16Q56.57 4.14 56.47 4.13L56.47 4.13L56.47 4.13Q56.36 4.12 56.32 4.12L56.32 4.12L56.32 4.12Q55.78 4.12 55.43 4.40L55.43 4.40L55.43 4.40Q55.09 4.68 54.89 5.10L54.89 5.10L54.89 5.10Q54.68 5.53 54.61 6.03L54.61 6.03L54.61 6.03Q54.53 6.54 54.53 6.99L54.53 6.99L54.53 10.50L53.65 10.50L53.65 3.36L54.33 3.36L54.49 4.75L54.49 4.75Q54.64 4.40 54.83 4.06L54.83 4.06L54.83 4.06Q55.02 3.72 55.30 3.51L55.30 3.51L55.30 3.51Q55.58 3.29 55.98 3.21L55.98 3.21L55.98 3.21Q56.38 3.14 56.95 3.29L56.95 3.29ZM60.93 3.19L60.93 3.19L60.93 3.19Q61.05 3.19 61.28 3.21L61.28 3.21L61.28 3.21Q61.50 3.22 61.76 3.30L61.76 3.30L61.76 3.30Q62.02 3.37 62.29 3.54L62.29 3.54L62.29 3.54Q62.55 3.70 62.77 3.98L62.77 3.98L62.77 3.98Q62.99 4.26 63.13 4.68L63.13 4.68L63.13 4.68Q63.27 5.11 63.27 5.73L63.27 5.73L63.27 10.50L62.51 10.50L62.43 9.35L62.43 9.35Q62.43 9.35 62.30 9.56L62.30 9.56L62.30 9.56Q62.17 9.77 61.91 10.02L61.91 10.02L61.91 10.02Q61.64 10.28 61.23 10.48L61.23 10.48L61.23 10.48Q60.82 10.68 60.23 10.68L60.23 10.68L60.23 10.68Q59.07 10.68 58.40 10.12L58.40 10.12L58.40 10.12Q57.74 9.55 57.81 8.46L57.81 8.46L57.81 8.46Q57.88 7.22 58.97 6.66L58.97 6.66L58.97 6.66Q60.06 6.10 62.37 6.15L62.37 6.15L62.37 5.71L62.37 5.71Q62.37 5.00 62.16 4.63L62.16 4.63L62.16 4.63Q61.95 4.27 61.67 4.12L61.67 4.12L61.67 4.12Q61.39 3.98 61.12 3.97L61.12 3.97L61.12 3.97Q60.86 3.96 60.75 3.96L60.75 3.96L60.75 3.96Q60.23 3.96 59.84 4.06L59.84 4.06L59.84 4.06Q59.44 4.16 59.18 4.27L59.18 4.27L59.18 4.27Q58.86 4.41 58.63 4.56L58.63 4.56L58.63 3.68L58.63 3.68Q58.97 3.56 59.33 3.44L59.33 3.44L59.33 3.44Q59.65 3.35 60.07 3.27L60.07 3.27L60.07 3.27Q60.48 3.19 60.93 3.19ZM60.19 9.93L60.19 9.93L60.19 9.93Q60.96 9.93 61.40 9.65L61.40 9.65L61.40 9.65Q61.84 9.38 62.06 8.97L62.06 8.97L62.06 8.97Q62.27 8.55 62.32 8.09L62.32 8.09L62.32 8.09Q62.37 7.62 62.37 7.21L62.37 7.21L62.37 6.92L61.57 6.92L61.57 6.92Q61.29 6.92 60.82 6.96L60.82 6.96L60.82 6.96Q60.34 7.01 59.89 7.17L59.89 7.17L59.89 7.17Q59.43 7.34 59.10 7.64L59.10 7.64L59.10 7.64Q58.77 7.94 58.77 8.46L58.77 8.46L58.77 8.46Q58.77 9.24 59.17 9.58L59.17 9.58L59.17 9.58Q59.57 9.93 60.19 9.93ZM68.46 10.50L68.46 10.50L68.46 10.50Q68.36 10.56 68.22 10.60L68.22 10.60L68.22 10.60Q68.11 10.63 67.93 10.65L67.93 10.65L67.93 10.65Q67.75 10.68 67.49 10.68L67.49 10.68L67.49 10.68Q66.95 10.68 66.63 10.51L66.63 10.51L66.63 10.51Q66.30 10.35 66.14 10.08L66.14 10.08L66.14 10.08Q65.97 9.81 65.92 9.48L65.92 9.48L65.92 9.48Q65.87 9.14 65.87 8.79L65.87 8.79L65.87 4.10L64.83 4.10L64.83 3.35L65.87 3.35L65.87 1.64L66.74 1.32L66.75 3.35L68.38 3.35L68.38 4.10L66.75 4.10L66.75 8.79L66.75 8.79Q66.75 8.89 66.77 9.08L66.77 9.08L66.77 9.08Q66.79 9.27 66.89 9.45L66.89 9.45L66.89 9.45Q66.99 9.63 67.17 9.77L67.17 9.77L67.17 9.77Q67.35 9.91 67.69 9.91L67.69 9.91L67.72 9.91L67.72 9.91Q68.00 9.91 68.19 9.84L68.19 9.84L68.19 9.84Q68.39 9.77 68.39 9.76L68.39 9.76L68.46 10.50ZM73.32 3.19L73.32 3.19L73.32 3.19Q73.98 3.19 74.42 3.40L74.42 3.40L74.42 3.40Q74.87 3.61 75.15 4.02L75.15 4.02L75.15 4.02Q75.43 4.42 75.56 5.02L75.56 5.02L75.56 5.02Q75.68 5.61 75.68 6.37L75.68 6.37L75.68 10.50L74.80 10.50L74.80 6.43L74.80 6.43Q74.80 5.15 74.45 4.56L74.45 4.56L74.45 4.56Q74.10 3.96 73.22 3.95L73.22 3.95L73.22 3.95Q72.66 3.95 72.23 4.15L72.23 4.15L72.23 4.15Q71.79 4.35 71.49 4.74L71.49 4.74L71.49 4.74Q71.19 5.12 71.04 5.67L71.04 5.67L71.04 5.67Q70.88 6.22 70.88 6.87L70.88 6.87L70.88 10.50L70.00 10.50L70.00 0L70.88 0L70.88 4.56L70.88 4.56Q71.22 3.93 71.85 3.56L71.85 3.56L71.85 3.56Q72.48 3.19 73.32 3.19Z"></path></g><defs data-v-fde0c5aa=""><linearGradient data-v-fde0c5aa="" gradientTransform="rotate(25)" id="aed69655-624b-47ad-821d-b5afcfd0390e" x1="0%" y1="0%" x2="100%" y2="0%"><stop data-v-fde0c5aa="" offset="0%" stop-color="#0076DD" stop-opacity="1"></stop><stop data-v-fde0c5aa="" offset="100%" stop-color="#00CDE9" stop-opacity="1"></stop></linearGradient></defs><g data-v-fde0c5aa="" id="58a12dce-e714-43d7-9718-ba918d796b0c" stroke="none" fill="url(#aed69655-624b-47ad-821d-b5afcfd0390e)" transform="matrix(0.975683331489563,0,0,0.975683331489563,39.28729380306258,125.58504867603698)"><path d="M17.422 36.759a.995.995 0 0 1-.564-.175L1.167 25.825a1 1 0 0 1 0-1.65l15.69-10.759a1 1 0 0 1 1.131 1.649L3.5 25l14.488 9.934a1 1 0 0 1-.566 1.825zM32.578 36.759a1.001 1.001 0 0 1-.566-1.826L46.499 25l-14.487-9.934a1 1 0 0 1 1.131-1.649l15.69 10.759a1.001 1.001 0 0 1 0 1.65l-15.69 10.759a1.01 1.01 0 0 1-.565.174zM20.557 41.697a1 1 0 0 1-1.9-.625l10.787-32.77a1.002 1.002 0 0 1 1.901.626L20.557 41.697z"></path></g><!----></svg>